<?xml version="1.0" encoding="iso-8859-1"?>
<!-- Generator: Adobe Illustrator 25.3.1, SVG Export Plug-In . SVG Version: 6.00 Build 0)  -->
<svg width="50px" height="35px"  version="1.1" id="Layer_1" xmlns="http://www.w3.org/2000/svg" xmlns:xlink="http://www.w3.org/1999/xlink" x="0px" y="0px"
	 viewBox="0 0 714 714" style="enable-background:new 0 0 714 714;" xml:space="preserve">
<path style="fill:#2A3F2B;" d="M178.38,373.47c-3.56-0.22-11.86-0.88-18.55-6.92c-2.2-1.99-3.62-4.02-4.97-6.25
	c-2.88-4.76-7.64-14.15-10.38-29.58c-2.74,15.43-7.51,24.82-10.37,29.58c-1.35,2.23-2.78,4.26-4.99,6.25
	c-6.68,6.04-14.98,6.7-18.54,6.92c-12.44,0.81-22.04-4.95-28.09-8.57c-0.16-0.09-0.31-0.19-0.46-0.28
	c1.44,92.17,2.88,184.33,4.31,276.51c3.36,1.52,7.84,3.11,13.27,3.93c10.56,1.59,19.23-0.58,24.07-2.22
	c6.55-87.86,13.1-175.73,19.66-263.6c6.71,87.79,13.43,175.57,20.14,263.36c4.64,1.2,10.64,2.3,17.69,2.46
	c8.63,0.19,15.87-1.1,21.13-2.46c2.13-93.03,4.26-186.07,6.39-279.1c-0.71,0.47-1.45,0.94-2.23,1.4
	C200.43,368.52,190.82,374.28,178.38,373.47z"/>
<path style="fill:#F4EBD7;" d="M36.33,352.47h29.73v-8.21c-9.91-0.08-19.82-0.17-29.73-0.25V352.47z"/>
<path style="fill:#F4EBD7;" d="M252.39,352.47v-8.46c-9.9,0.08-19.81,0.17-29.72,0.26v8.2H252.39z"/>
<path style="fill:#F4EBD7;" d="M702.036,583.632c-9.515-10.782-16.944-22.651-24.188-34.61
	c-5.794-9.564-11.242-19.288-17.226-28.762c-5.495-8.7-10.621-17.527-14.798-26.755c-10.326-22.812-19.527-45.975-28.57-69.18
	c-10.187-26.143-20.103-52.364-30.187-78.537c-4.786-12.423-9.73-24.801-14.528-37.221c-7.776-20.129-16.579-39.869-28.586-58.466
	c-6.372-9.869-13.014-19.59-20.1-29.084c-5.832-7.815-11.957-15.46-18.351-22.942c-1.173-1.373-2.447-2.766-2.134-4.609
	c0.904-5.327,1.257-10.749,3.192-15.911c3.337-8.903,8.675-16.982,14.066-25.032c4.055-6.055,8.369-11.999,11.224-18.585
	c1.881-4.339,3.036-8.769,2.071-13.486c-1.661-8.121-0.648-16.128,1.807-24.031c1.679-5.405,3.425-10.794,5.137-16.191
	c0.88-2.773,0.711-3.111-2.459-3.734c-6.999-1.376-14.016-2.683-21.025-4.023c-3.617-0.691-7.223-1.43-10.851-2.077
	c-2.765-0.494-3.23-0.055-2.487,2.191c0.318,0.96,0.756,1.891,1.071,2.852c2.809,8.57,5.161,17.16,4.453,26.219
	c-0.527,6.741-3.911,11.729-10.399,15.372c-4.294,2.41-8.956,4.185-13.48,6.199c-7.868,3.501-15.455,7.28-20.711,13.736
	c-1.239,1.522-1.597,1.439-3.119-0.114c-4.005-4.085-8.689-7.435-14.062-10.122c-4.417-2.208-9.064-4.016-13.569-6.068
	c-3.075-1.401-6.066-2.912-8.886-4.679c-4.129-2.588-6.701-6.022-7.719-10.321c-1.008-4.261-0.816-8.555-0.201-12.826
	c1.005-6.984,3.444-13.655,6.201-20.248c0.303-0.725,0.957-1.399,0.545-2.273c-0.891-0.526-1.793-0.143-2.669,0.013
	c-5.555,0.992-11.108,1.997-16.657,3.016c-6.002,1.102-12.006,2.195-17.995,3.35c-2.094,0.404-2.26,0.84-1.273,2.479
	c0.213,0.354,0.493,0.677,0.728,1.021c6.235,9.171,9.73,18.982,9.097,29.704c-0.182,3.085-0.695,6.157-1.074,9.233
	c-0.618,5.015-0.627,9.974,1.581,14.769c1.583,3.438,3.187,6.868,5.286,10.1c4.077,6.278,7.965,12.638,11.72,19.065
	c4.897,8.382,8.182,17.174,9.448,26.505c0.476,3.513,0.612,6.943-2.339,9.938c-1.486,1.508-2.52,3.346-3.771,5.027
	c-13.395,17.994-26.416,36.186-38.32,54.951c-5.502,8.674-10.902,17.406-15.268,26.575c-7.753,16.281-14.225,32.963-20.709,49.633
	c-8.292,21.316-16.211,42.74-24.404,64.085c-11.397,29.693-22.53,59.466-35.21,88.78c-3.199,7.395-6.413,14.806-10.687,21.798
	c-8.049,13.166-16.241,26.268-24.465,39.354c-4.194,6.673-8.422,13.331-12.962,19.841c-3.346,4.798-6.87,9.486-10.485,14.131
	c-1.624,2.086-1.44,2.772,0.823,4.208c0.649,0.412,1.378,0.733,2.084,1.076c4.969,2.415,10.45,3.095,16.009,3.589
	c5.863,0.521,11.768,0.673,17.573,1.73c9.263,1.686,15.994,6.031,19.876,13.549c2.214,4.289,4.424,8.58,6.674,12.855
	c1.583,3.007,3.182,6.035,6.037,8.339c8.965,7.236,19.919,9.408,31.747,8.818c5.074-0.253,10.029-1.463,14.879-2.879
	c4.276-1.249,8.604-2.368,12.911-3.536c5.118-1.388,10.421-2.097,15.727-2.175c8.27-0.121,15.731,1.975,21.746,7.209
	c4.404,3.831,8.997,7.513,14.123,10.613c8.775,5.307,18.714,8.304,29.08,10.242c9.068,1.696,18.257,2.566,27.572,2.468
	c8.219-0.087,16.406-0.157,24.589-1.128c11.365-1.349,21.568-5.195,31.369-10.049c6.88-3.408,12.637-8.08,18.517-12.587
	c7.553-5.79,16.5-7.379,26.185-6.626c7.658,0.596,14.946,2.661,22.203,4.74c6.816,1.952,13.609,3.994,20.748,4.889
	c11.35,1.423,21.559-0.629,30.429-7.25c4.212-3.144,6.564-6.861,6.882-11.624c0.188-2.811,1.028-5.513,2.097-8.168
	c3.958-9.835,11.291-16.355,23.604-18.083c4.575-0.642,9.179-1.068,13.792-1.304c4.538-0.232,8.968-0.857,13.333-1.892
	c2.48-0.588,4.766-1.574,6.876-2.816C703.863,586.337,703.969,585.823,702.036,583.632z"/>
<path style="fill:#2E5530;" d="M253.65,344c2.8-30.23,3.84-66.28,0.41-106.67c-4.39-51.78-14.87-95.84-25.73-130.34
	c-2.87-1.37-7.48-3.5-13.28-5.82c-14.73-5.88-20.49-6.38-28.65-11.41c-3.59-2.21-8.69-5.94-13.9-12.25
	c-3.5,3.04-7.43,6.2-11.83,9.35c-5.68,4.06-11.15,7.41-16.19,10.16c-5.04-2.75-10.51-6.1-16.19-10.16
	c-4.39-3.15-8.33-6.31-11.83-9.35c-5.22,6.31-10.32,10.04-13.91,12.25c-8.15,5.03-13.9,5.53-28.63,11.41
	c-5.81,2.32-10.42,4.45-13.29,5.82c-10.85,34.5-21.34,78.56-25.73,130.34c-3.43,40.39-2.38,76.44,0.42,106.67
	c0.33,0,0.67,0.01,1.01,0.01c9.91,0.08,19.82,0.17,29.73,0.25c0.63,0.01,1.27,0.01,1.9,0.02c-0.79-18.96-0.9-36.03-0.69-50.82
	c0.17-11.51,0.47-29.62,2.39-53.44c1.51-18.7,3.58-35.37,5.7-49.6c1,2.53,2.36,6.23,3.75,10.79c5.31,17.56,5.9,31.59,6.01,36.32
	c0.16,6.81-0.27,11.95-0.52,14.74c-2.54,28.86-9.48,82.68-10.68,92.01c-0.46,4.43-0.92,8.86-1.39,13.29c2.14,1.9,5.32,4.49,9.5,7.05
	c0.15,0.09,0.3,0.19,0.46,0.28c6.05,3.62,15.65,9.38,28.09,8.57c3.56-0.22,11.86-0.88,18.54-6.92c2.21-1.99,3.64-4.02,4.99-6.25
	c2.86-4.76,7.63-14.15,10.37-29.58c2.74,15.43,7.5,24.82,10.38,29.58c1.35,2.23,2.77,4.26,4.97,6.25c6.69,6.04,14.99,6.7,18.55,6.92
	c12.44,0.81,22.05-4.95,28.08-8.57c0.78-0.46,1.52-0.93,2.23-1.4c3.33-2.18,5.91-4.31,7.74-5.93c-0.46-4.43-0.92-8.86-1.38-13.29
	c-1.22-9.33-8.15-63.15-10.69-92.01c-0.24-2.79-0.69-7.93-0.52-14.74c0.11-4.73,0.71-18.76,6.02-36.32
	c1.38-4.56,2.74-8.26,3.73-10.79c2.13,14.23,4.2,30.9,5.71,49.6c1.92,23.82,2.22,41.93,2.39,53.44c0.22,14.79,0.1,31.86-0.7,50.82
	c0.56,0,1.12-0.01,1.68-0.01c9.91-0.09,19.82-0.18,29.72-0.26C252.81,344.01,253.23,344,253.65,344z M119.92,93.7
	c2.55,0.04,7.07,0.45,11.9,2.98c2.85,1.49,4.95,3.27,6.38,4.71c0.68-0.49,2.22-1.47,4.41-1.67c2.71-0.24,4.71,0.83,5.4,1.25
	c1.61-1.41,3.95-3.14,7.11-4.52c5.15-2.23,9.81-2.37,12.45-2.23c0.65,2.71,1.4,7.43,0.36,13.13c-1.17,6.46-4.05,11.02-5.76,13.34
	c-2.63-1.33-5.83-3.24-9.08-6.03c-1.99-1.7-3.64-3.4-4.97-4.98c-0.9,0.4-2.23,0.86-3.9,0.99c-2.48,0.19-4.46-0.45-5.5-0.88
	c-1.08,1.25-2.34,2.55-3.79,3.84c-3.8,3.39-7.64,5.61-10.79,7.06c-1.56-2.34-3.85-6.41-4.91-11.97
	C117.95,102.02,119.1,96.55,119.92,93.7z M147.81,130.45c-0.51,1.83-2.41,2.91-4.25,2.41c-1.83-0.51-2.91-2.41-2.4-4.24
	c0.5-1.84,2.4-2.93,4.24-2.42C147.24,126.71,148.31,128.61,147.81,130.45z M147.81,164.57c-0.51,1.83-2.41,2.91-4.25,2.4
	c-1.83-0.5-2.91-2.4-2.4-4.24c0.5-1.84,2.4-2.92,4.24-2.41C147.24,160.82,148.31,162.73,147.81,164.57z M108.37,174.65
	c-9.24-26.15-10.8-39.81-8.72-53.55c2.1-13.84,7.41-24.6,11.62-31.55c-0.04,26.72,2.49,60.18,11.63,97.55
	c5.4,22.15,12.16,41.72,19.09,58.52C125.21,217.77,114.85,193,108.37,174.65z M143.56,203.29c-1.83-0.51-2.91-2.4-2.4-4.24
	c0.5-1.84,2.4-2.91,4.24-2.4c1.84,0.5,2.91,2.4,2.41,4.24C147.3,202.73,145.4,203.79,143.56,203.29z M179.17,174.65
	c-6.49,18.35-16.85,43.12-33.62,70.97c6.92-16.8,13.68-36.37,19.09-58.52c9.13-37.37,11.67-70.83,11.62-97.55
	c4.21,6.95,9.53,17.71,11.62,31.55C189.96,134.84,188.4,148.5,179.17,174.65z"/>
<path style="fill:#F4EBD7;" d="M147.81,200.89c0.5-1.84-0.57-3.74-2.41-4.24c-1.84-0.51-3.74,0.56-4.24,2.4
	c-0.51,1.84,0.57,3.73,2.4,4.24C145.4,203.79,147.3,202.73,147.81,200.89z"/>
<path style="fill:#F4EBD7;" d="M111.27,89.55c-4.21,6.95-9.52,17.71-11.62,31.55c-2.08,13.74-0.52,27.4,8.72,53.55
	c6.48,18.35,16.84,43.12,33.62,70.97c-6.93-16.8-13.69-36.37-19.09-58.52C113.76,149.73,111.23,116.27,111.27,89.55z"/>
<path style="fill:#F4EBD7;" d="M176.26,89.55c0.05,26.72-2.49,60.18-11.62,97.55c-5.41,22.15-12.17,41.72-19.09,58.52
	c16.77-27.85,27.13-52.62,33.62-70.97c9.23-26.15,10.79-39.81,8.71-53.55C185.79,107.26,180.47,96.5,176.26,89.55z"/>
<path style="fill:#F4EBD7;" d="M145.4,160.32c-1.84-0.51-3.74,0.57-4.24,2.41c-0.51,1.84,0.57,3.74,2.4,4.24
	c1.84,0.51,3.74-0.57,4.25-2.4C148.31,162.73,147.24,160.82,145.4,160.32z"/>
<path style="fill:#F4EBD7;" d="M145.4,126.2c-1.84-0.51-3.74,0.58-4.24,2.42c-0.51,1.83,0.57,3.73,2.4,4.24
	c1.84,0.5,3.74-0.58,4.25-2.41C148.31,128.61,147.24,126.71,145.4,126.2z"/>
<path style="fill:#F4EBD7;" d="M124.14,120.69c3.15-1.45,6.99-3.67,10.79-7.06c1.45-1.29,2.71-2.59,3.79-3.84
	c1.04,0.43,3.02,1.07,5.5,0.88c1.67-0.13,3-0.59,3.9-0.99c1.33,1.58,2.98,3.28,4.97,4.98c3.25,2.79,6.45,4.7,9.08,6.03
	c1.71-2.32,4.59-6.88,5.76-13.34c1.04-5.7,0.29-10.42-0.36-13.13c-2.64-0.14-7.3,0-12.45,2.23c-3.16,1.38-5.5,3.11-7.11,4.52
	c-0.69-0.42-2.69-1.49-5.4-1.25c-2.19,0.2-3.73,1.18-4.41,1.67c-1.43-1.44-3.53-3.22-6.38-4.71c-4.83-2.53-9.35-2.94-11.9-2.98
	c-0.82,2.85-1.97,8.32-0.69,15.02C120.29,114.28,122.58,118.35,124.14,120.69z"/>
</svg>
